<?xml version="1.0" encoding="UTF-8"?>
<svg id="_레이어_1" data-name="레이어_1" xmlns="http://www.w3.org/2000/svg" version="1.1" viewBox="0 0 651.4 108.57">
  <!-- Generator: Adobe Illustrator 30.3.0, SVG Export Plug-In . SVG Version: 2.1.3 Build 182)  -->
  <path d="M558.94,65.83h24c0,3.22.69,5.17,4.6,5.17,2.98,0,4.7-1.26,5-2.98.41-2.3-1.45-3.45-9.01-4.25-16.02-1.61-22.95-5.29-20.54-18.96,2.53-14.36,17.1-21.13,33.18-21.13,16.99,0,25.99,5.28,24.57,20.56h-23.54c-.12-2.65-1.11-4.82-4.32-4.82s-4.6,1.38-4.91,3.1c-.43,2.41,2.01,3.56,7.35,3.9,18.49,1.95,25.61,5.86,23.32,18.84-2.82,15.97-15.99,21.94-33.67,21.94s-28.17-7.24-26.03-21.37"/>
  <path d="M36.2,85.47h26.33l10.59-60.06h-26.33l-5.93,33.61c-1.08,6.12-3.55,8.78-8.61,8.78-4.11,0-5.41-2.66-4.55-7.51l6.15-34.88H7.53L.51,65.15c-2.56,14.54,4.69,22.05,16.16,22.05,10.31,0,16.5-4.27,21.13-10.85l-1.61,9.12Z"/>
  <path d="M126.29,23.68c-10.22,0-17.62,5.08-22.25,11.54l1.73-9.81h-26.33l-10.59,60.06h26.33l5.93-33.62c1.08-6.12,3.68-8.76,8.54-8.76,4.28,0,5.47,2.65,4.62,7.5l-6.15,34.89h26.33l7.05-39.97c2.53-14.32-3.93-21.82-15.21-21.82"/>
  <path d="M259.2,64.68c-1.03,2.36-3.2,6.35-8.53,6.35-4.79,0-8.03-4.07-7.66-10.05h41.22l.98-5.54c3.83-21.71-10.28-31.76-27.89-31.76-18.87,0-35.57,11.78-39.1,31.76-3.55,20.1,8.23,31.77,27.89,31.77s33.12-8.42,37.42-22.52h-24.33ZM255.5,39.85c5.02,0,7.93,4.28,7.17,9.23h-17.46c1.72-5.86,5.95-9.23,10.29-9.23"/>
  <path d="M454.74,23.68c-19.52,0-36.72,11.78-40.25,31.76-3.55,20.1,8.71,31.76,29.05,31.76s36.7-11.66,40.25-31.76c3.52-19.98-9.53-31.76-29.05-31.76M457.22,55.44c-1.4,7.91-4.82,12.7-10.33,12.7s-7.24-4.79-5.84-12.7c1.52-8.63,4.82-12.7,10.32-12.7s7.2,5.03,5.85,12.7"/>
  <path d="M319.4,36.93l2.03-11.52h-26.34l-10.59,60.06h26.34l4.78-27.14c1.22-6.9,8.61-11.04,21.65-10.12l4.32-24.51c-8.74-.34-16.51,3.22-22.2,13.23"/>
  <path d="M534.6,25.41l-1.26,7.14c-2.34-5.64-7.16-8.87-16.33-8.87-12.96,0-25.83,9.24-29.3,28.87-3.5,19.84,6.38,28.87,19.35,28.87,9.17,0,15.67-4.28,19.43-10.02l-1.48,8.42c-.84,4.73-3.34,9.7-11.15,9.7-4.54,0-5.99-1.95-6.48-4.05h-26.33c-.89,15.08,8.06,23.1,29.44,23.1,23.93,0,37.51-9.8,40.73-28.05l9.71-55.11h-26.33ZM530.62,52.9c-1.11,6.33-4.37,10.16-9.88,10.16s-7.4-3.84-6.29-10.16c1.22-6.9,4.37-10.16,9.88-10.16s7.38,4.02,6.29,10.16"/>
  <path d="M623.9,73.45c0-7.56,5.66-13.75,13.53-13.75s13.98,6.19,13.98,13.75-5.88,13.75-13.98,13.75-13.53-6.07-13.53-13.75"/>
  <path d="M197.07,0l-5.9,33.45c-2.3-6.2-7.18-9.76-16.54-9.76-13.23,0-26.5,10.17-30.3,31.76-3.85,21.82,6.11,31.76,19.34,31.76,9.36,0,16.05-4.71,19.97-11.02l-1.64,9.29h26.33L223.41,0h-26.33ZM188.16,55.44c-1.4,7.91-4.82,12.7-10.33,12.7s-7.24-4.79-5.84-12.7c1.52-8.63,4.82-12.7,10.32-12.7s7.2,5.03,5.85,12.7"/>
  <path d="M393.34,0l-5.9,33.45c-2.3-6.2-7.18-9.76-16.54-9.76-13.23,0-26.5,10.17-30.3,31.76-3.85,21.82,6.11,31.76,19.34,31.76,9.36,0,16.05-4.71,19.97-11.02l-1.64,9.29h26.33L419.67,0h-26.33ZM384.43,55.44c-1.4,7.91-4.82,12.7-10.33,12.7s-7.24-4.79-5.84-12.7c1.52-8.63,4.82-12.7,10.32-12.7s7.2,5.03,5.85,12.7"/>
</svg>