<?xml version="1.0" encoding="UTF-8"?>
<svg id="_레이어_1" data-name="레이어_1" xmlns="http://www.w3.org/2000/svg" version="1.1" viewBox="0 0 141.57 108.9">
  <!-- Generator: Adobe Illustrator 30.3.0, SVG Export Plug-In . SVG Version: 2.1.3 Build 182)  -->
  <path d="M47.49,62.77L58.04,2.97H12.89L.88,71.1c-4.4,24.93,8.04,37.8,29.65,37.8,15.41,0,26.63-11.13,29.31-26.31l1.23-6.95h-5.76c-7.06,0-9.27-4.56-7.81-12.87"/>
  <path d="M108.88,0c-26.54,0-32.09,25.75-32.57,32.67h6.26c9.83,0,12.41,8.22,10.02,21.78l-9.53,54.07c1.62.16,3.18.38,5,.38,22.68,0,45.43-17.43,51.95-54.45C146.61,17.04,131.56,0,108.88,0"/>
</svg>