<svg xmlns="http://www.w3.org/2000/svg" width="1280" height="720" viewBox="0 0 1280 720">
  <rect width="1280" height="720" fill="#2b2c2b"/>
  <g opacity="0.5" stroke="#5a5b5a" stroke-width="1.5">
    <line x1="0" y1="0" x2="360" y2="720"/>
    <line x1="80" y1="0" x2="440" y2="720"/>
    <line x1="160" y1="0" x2="520" y2="720"/>
    <line x1="240" y1="0" x2="600" y2="720"/>
    <line x1="320" y1="0" x2="680" y2="720"/>
    <line x1="400" y1="0" x2="760" y2="720"/>
    <line x1="480" y1="0" x2="840" y2="720"/>
    <line x1="560" y1="0" x2="920" y2="720"/>
    <line x1="640" y1="0" x2="1000" y2="720"/>
    <line x1="720" y1="0" x2="1080" y2="720"/>
    <line x1="800" y1="0" x2="1160" y2="720"/>
    <line x1="880" y1="0" x2="1240" y2="720"/>
    <line x1="960" y1="0" x2="1320" y2="720"/>
    <line x1="1040" y1="0" x2="1400" y2="720"/>
    <line x1="1120" y1="0" x2="1480" y2="720"/>
    <line x1="1200" y1="0" x2="1560" y2="720"/>
    <line x1="1280" y1="0" x2="1640" y2="720"/>
    <line x1="1360" y1="0" x2="1720" y2="720"/>
  </g>
  <g fill="#3a3b3a">
    <circle cx="980" cy="240" r="200"/>
    <circle cx="1120" cy="540" r="120"/>
  </g>
  <rect x="0" y="0" width="1280" height="720" fill="#000000" opacity="0.28"/>
</svg>