<svg xmlns="http://www.w3.org/2000/svg" width="800" height="600" viewBox="0 0 800 600">
  <rect width="800" height="600" fill="#cfcfcf"/>
  <rect x="0" y="380" width="800" height="220" fill="#9a9a9a"/>
  <g fill="#7d7d7d">
    <rect x="80" y="150" width="160" height="320"/>
    <rect x="300" y="90" width="200" height="380"/>
    <rect x="560" y="200" width="160" height="270"/>
  </g>
  <g fill="#e6e6e6">
    <rect x="320" y="120" width="28" height="34"/><rect x="320" y="180" width="28" height="34"/><rect x="320" y="240" width="28" height="34"/><rect x="320" y="300" width="28" height="34"/><rect x="320" y="360" width="28" height="34"/><rect x="365" y="120" width="28" height="34"/><rect x="365" y="180" width="28" height="34"/><rect x="365" y="240" width="28" height="34"/><rect x="365" y="300" width="28" height="34"/><rect x="365" y="360" width="28" height="34"/><rect x="410" y="120" width="28" height="34"/><rect x="410" y="180" width="28" height="34"/><rect x="410" y="240" width="28" height="34"/><rect x="410" y="300" width="28" height="34"/><rect x="410" y="360" width="28" height="34"/><rect x="455" y="120" width="28" height="34"/><rect x="455" y="180" width="28" height="34"/><rect x="455" y="240" width="28" height="34"/><rect x="455" y="300" width="28" height="34"/><rect x="455" y="360" width="28" height="34"/>
  </g>
  <rect width="800" height="600" fill="none" stroke="#888" stroke-width="2"/>
</svg>