<?xml version="1.0" encoding="UTF-8"?>
<svg id="_레이어_1" data-name="레이어_1" xmlns="http://www.w3.org/2000/svg" version="1.1" viewBox="0 0 620 73">
  <!-- Generator: Adobe Illustrator 30.2.1, SVG Export Plug-In . SVG Version: 2.1.1 Build 1)  -->
  <defs>
    <style>
      .st0 {
        isolation: isolate;
        opacity: .6;
      }
    </style>
  </defs>
  <path class="st0" d="M345.72,32.16c.75-1.31,1.84-2.37,3.28-3.2,1.44-.83,3.08-1.24,4.92-1.24,1.97,0,3.75.47,5.32,1.4s2.81,2.25,3.72,3.96c.91,1.68,1.36,3.64,1.36,5.88s-.45,4.19-1.36,5.92c-.91,1.73-2.16,3.08-3.76,4.04-1.57.96-3.33,1.44-5.28,1.44s-3.56-.41-5-1.24c-1.41-.83-2.48-1.88-3.2-3.16v4.04h-3.64v-29.6h3.64v11.76ZM360.6,38.96c0-1.65-.33-3.09-1-4.32s-1.57-2.16-2.72-2.8c-1.12-.64-2.36-.96-3.72-.96s-2.57.33-3.72,1c-1.12.64-2.03,1.59-2.72,2.84-.67,1.23-1,2.65-1,4.28s.33,3.11,1,4.36c.69,1.23,1.6,2.17,2.72,2.84,1.15.64,2.39.96,3.72.96s2.6-.32,3.72-.96c1.15-.67,2.05-1.61,2.72-2.84.67-1.25,1-2.72,1-4.4ZM387.99,28.08l-13.2,32.24h-3.76l4.32-10.56-8.84-21.68h4.04l6.88,17.76,6.8-17.76h3.76ZM405.87,22.12v17.64c0,2.48.6,4.32,1.8,5.52,1.23,1.2,2.92,1.8,5.08,1.8s3.8-.6,5-1.8c1.23-1.2,1.84-3.04,1.84-5.52v-17.64h3.64v17.6c0,2.32-.47,4.28-1.4,5.88-.93,1.57-2.2,2.75-3.8,3.52-1.57.77-3.35,1.16-5.32,1.16s-3.76-.39-5.36-1.16c-1.57-.77-2.83-1.95-3.76-3.52-.91-1.6-1.36-3.56-1.36-5.88v-17.6h3.64ZM439.99,27.68c2.67,0,4.83.81,6.48,2.44,1.65,1.6,2.48,3.92,2.48,6.96v12.92h-3.6v-12.4c0-2.19-.55-3.85-1.64-5-1.09-1.17-2.59-1.76-4.48-1.76s-3.45.6-4.6,1.8c-1.12,1.2-1.68,2.95-1.68,5.24v12.12h-3.64v-21.92h3.64v3.12c.72-1.12,1.69-1.99,2.92-2.6,1.25-.61,2.63-.92,4.12-.92ZM453.53,38.96c0-2.24.45-4.2,1.36-5.88.91-1.71,2.15-3.03,3.72-3.96,1.6-.93,3.39-1.4,5.36-1.4,1.71,0,3.29.4,4.76,1.2,1.47.77,2.59,1.8,3.36,3.08v-11.6h3.68v29.6h-3.68v-4.12c-.72,1.31-1.79,2.39-3.2,3.24-1.41.83-3.07,1.24-4.96,1.24s-3.72-.48-5.32-1.44c-1.57-.96-2.81-2.31-3.72-4.04-.91-1.73-1.36-3.71-1.36-5.92ZM472.09,39c0-1.65-.33-3.09-1-4.32-.67-1.23-1.57-2.16-2.72-2.8-1.12-.67-2.36-1-3.72-1s-2.6.32-3.72.96c-1.12.64-2.01,1.57-2.68,2.8-.67,1.23-1,2.67-1,4.32s.33,3.15,1,4.4c.67,1.23,1.56,2.17,2.68,2.84,1.12.64,2.36.96,3.72.96s2.6-.32,3.72-.96c1.15-.67,2.05-1.61,2.72-2.84.67-1.25,1-2.71,1-4.36ZM501.92,38.2c0,.69-.04,1.43-.12,2.2h-17.52c.13,2.16.87,3.85,2.2,5.08,1.36,1.2,3,1.8,4.92,1.8,1.57,0,2.88-.36,3.92-1.08,1.07-.75,1.81-1.73,2.24-2.96h3.92c-.59,2.11-1.76,3.83-3.52,5.16-1.76,1.31-3.95,1.96-6.56,1.96-2.08,0-3.95-.47-5.6-1.4-1.63-.93-2.91-2.25-3.84-3.96-.93-1.73-1.4-3.73-1.4-6s.45-4.25,1.36-5.96c.91-1.71,2.17-3.01,3.8-3.92,1.65-.93,3.55-1.4,5.68-1.4s3.92.45,5.52,1.36c1.6.91,2.83,2.16,3.68,3.76.88,1.57,1.32,3.36,1.32,5.36ZM498.16,37.44c0-1.39-.31-2.57-.92-3.56-.61-1.01-1.45-1.77-2.52-2.28-1.04-.53-2.2-.8-3.48-.8-1.84,0-3.41.59-4.72,1.76-1.28,1.17-2.01,2.8-2.2,4.88h13.84ZM510.37,31.64c.64-1.25,1.55-2.23,2.72-2.92,1.2-.69,2.65-1.04,4.36-1.04v3.76h-.96c-4.08,0-6.12,2.21-6.12,6.64v11.92h-3.64v-21.92h3.64v3.56ZM520.29,38.96c0-2.24.45-4.2,1.36-5.88.91-1.71,2.15-3.03,3.72-3.96,1.6-.93,3.39-1.4,5.36-1.4,1.71,0,3.29.4,4.76,1.2,1.47.77,2.59,1.8,3.36,3.08v-11.6h3.68v29.6h-3.68v-4.12c-.72,1.31-1.79,2.39-3.2,3.24-1.41.83-3.07,1.24-4.96,1.24s-3.72-.48-5.32-1.44c-1.57-.96-2.81-2.31-3.72-4.04-.91-1.73-1.36-3.71-1.36-5.92ZM538.85,39c0-1.65-.33-3.09-1-4.32-.67-1.23-1.57-2.16-2.72-2.8-1.12-.67-2.36-1-3.72-1s-2.6.32-3.72.96-2.01,1.57-2.68,2.8c-.67,1.23-1,2.67-1,4.32s.33,3.15,1,4.4c.67,1.23,1.56,2.17,2.68,2.84,1.12.64,2.36.96,3.72.96s2.6-.32,3.72-.96c1.15-.67,2.05-1.61,2.72-2.84.67-1.25,1-2.71,1-4.36ZM558.24,50.36c-2.05,0-3.92-.47-5.6-1.4-1.65-.93-2.96-2.25-3.92-3.96-.93-1.73-1.4-3.73-1.4-6s.48-4.21,1.44-5.92c.99-1.73,2.32-3.05,4-3.96,1.68-.93,3.56-1.4,5.64-1.4s3.96.47,5.64,1.4c1.68.91,3,2.21,3.96,3.92.99,1.71,1.48,3.69,1.48,5.96s-.51,4.27-1.52,6c-.99,1.71-2.33,3.03-4.04,3.96-1.71.93-3.6,1.4-5.68,1.4ZM558.24,47.16c1.31,0,2.53-.31,3.68-.92,1.15-.61,2.07-1.53,2.76-2.76.72-1.23,1.08-2.72,1.08-4.48s-.35-3.25-1.04-4.48c-.69-1.23-1.6-2.13-2.72-2.72-1.12-.61-2.33-.92-3.64-.92s-2.56.31-3.68.92c-1.09.59-1.97,1.49-2.64,2.72-.67,1.23-1,2.72-1,4.48s.32,3.29.96,4.52c.67,1.23,1.55,2.15,2.64,2.76,1.09.59,2.29.88,3.6.88ZM583.31,27.72c1.89,0,3.55.41,4.96,1.24,1.44.83,2.51,1.87,3.2,3.12v-4h3.68v22.4c0,2-.43,3.77-1.28,5.32-.85,1.57-2.08,2.8-3.68,3.68-1.57.88-3.41,1.32-5.52,1.32-2.88,0-5.28-.68-7.2-2.04-1.92-1.36-3.05-3.21-3.4-5.56h3.6c.4,1.33,1.23,2.4,2.48,3.2,1.25.83,2.76,1.24,4.52,1.24,2,0,3.63-.63,4.88-1.88,1.28-1.25,1.92-3.01,1.92-5.28v-4.6c-.72,1.28-1.79,2.35-3.2,3.2-1.41.85-3.07,1.28-4.96,1.28s-3.72-.48-5.32-1.44c-1.57-.96-2.81-2.31-3.72-4.04-.91-1.73-1.36-3.71-1.36-5.92s.45-4.2,1.36-5.88c.91-1.71,2.15-3.03,3.72-3.96,1.6-.93,3.37-1.4,5.32-1.4ZM591.47,39c0-1.65-.33-3.09-1-4.32-.67-1.23-1.57-2.16-2.72-2.8-1.12-.67-2.36-1-3.72-1s-2.6.32-3.72.96-2.01,1.57-2.68,2.8c-.67,1.23-1,2.67-1,4.32s.33,3.15,1,4.4c.67,1.23,1.56,2.17,2.68,2.84,1.12.64,2.36.96,3.72.96s2.6-.32,3.72-.96c1.15-.67,2.05-1.61,2.72-2.84.67-1.25,1-2.71,1-4.36ZM609.06,50.36c-1.68,0-3.19-.28-4.52-.84-1.33-.59-2.39-1.39-3.16-2.4-.77-1.04-1.2-2.23-1.28-3.56h3.76c.11,1.09.61,1.99,1.52,2.68.93.69,2.15,1.04,3.64,1.04,1.39,0,2.48-.31,3.28-.92s1.2-1.39,1.2-2.32-.43-1.67-1.28-2.12c-.85-.48-2.17-.95-3.96-1.4-1.63-.43-2.96-.85-4-1.28-1.01-.45-1.89-1.11-2.64-1.96-.72-.88-1.08-2.03-1.08-3.44,0-1.12.33-2.15,1-3.08.67-.93,1.61-1.67,2.84-2.2,1.23-.56,2.63-.84,4.2-.84,2.43,0,4.39.61,5.88,1.84,1.49,1.23,2.29,2.91,2.4,5.04h-3.64c-.08-1.15-.55-2.07-1.4-2.76-.83-.69-1.95-1.04-3.36-1.04-1.31,0-2.35.28-3.12.84-.77.56-1.16,1.29-1.16,2.2,0,.72.23,1.32.68,1.8.48.45,1.07.83,1.76,1.12.72.27,1.71.57,2.96.92,1.57.43,2.85.85,3.84,1.28.99.4,1.83,1.01,2.52,1.84.72.83,1.09,1.91,1.12,3.24,0,1.2-.33,2.28-1,3.24-.67.96-1.61,1.72-2.84,2.28-1.2.53-2.59.8-4.16.8Z"/>
  <path d="M27.51,38.82l6.09-34.62H7.46L.51,43.63c-2.55,14.43,4.65,21.91,17.17,21.91,8.95,0,15.43-6.45,16.98-15.23l.72-4.04h-3.32c-4.07,0-5.37-2.66-4.51-7.45"/>
  <path d="M63.08,2.47c-15.37,0-18.58,14.9-18.86,18.92h3.63c5.68,0,7.2,4.76,5.82,12.6l-5.51,31.32c.94.11,1.86.22,2.91.22,13.13,0,26.31-10.11,30.08-31.55,3.82-21.66-4.9-31.55-18.03-31.55"/>
  <path d="M119.46,32.07h-13.68l-2.27,6.56h-7.23l12.35-34.43h8.03l12.35,34.43h-7.28l-2.27-6.56ZM117.58,26.56l-4.99-14.37-4.99,14.37h9.97Z"/>
  <path d="M132.62,17.56c1.16-2.1,2.74-3.77,4.79-4.93,2.02-1.16,4.38-1.74,7.01-1.74,3.38,0,6.18.86,8.39,2.55,2.22,1.69,3.71,4.07,4.46,7.12h-7.45c-.39-1.19-1.05-2.1-1.99-2.77-.94-.66-2.11-1.02-3.46-1.02-1.97,0-3.52.72-4.68,2.13-1.16,1.44-1.72,3.46-1.72,6.09s.58,4.6,1.72,6.04c1.14,1.44,2.71,2.13,4.68,2.13,2.8,0,4.62-1.25,5.46-3.74h7.45c-.75,2.96-2.24,5.32-4.49,7.03-2.24,1.74-5.01,2.6-8.36,2.6-2.63,0-4.96-.58-7.01-1.74-2.05-1.16-3.63-2.8-4.79-4.93-1.16-2.13-1.72-4.6-1.72-7.42s.58-5.29,1.72-7.42v.03Z"/>
  <path d="M171.34,17v13.21c0,.91.22,1.58.67,1.99.44.42,1.19.61,2.24.61h3.21v5.82h-4.32c-5.82,0-8.72-2.83-8.72-8.48v-13.16h-3.24v-5.65h3.24v-6.79h6.95v6.76h6.12v5.65h-6.12l-.03.03Z"/>
  <path d="M183.86,6.92c-.8-.78-1.22-1.72-1.22-2.88s.41-2.1,1.22-2.88c.8-.78,1.83-1.16,3.02-1.16s2.21.39,3.02,1.16c.8.78,1.22,1.74,1.22,2.88s-.42,2.1-1.22,2.88c-.8.78-1.83,1.16-3.02,1.16s-2.22-.39-3.02-1.16ZM190.28,11.33v27.28h-6.9V11.33h6.9Z"/>
  <path d="M202.11,37.31c-2.1-1.16-3.74-2.83-4.96-4.96-1.19-2.13-1.8-4.6-1.8-7.39s.61-5.26,1.86-7.39c1.25-2.13,2.91-3.79,5.04-4.96,2.13-1.16,4.51-1.74,7.15-1.74s5.01.58,7.15,1.74c2.13,1.16,3.82,2.82,5.04,4.96,1.25,2.13,1.86,4.6,1.86,7.39s-.64,5.26-1.88,7.39c-1.25,2.13-2.96,3.79-5.12,4.96-2.16,1.16-4.57,1.74-7.23,1.74s-4.99-.58-7.09-1.74ZM212.72,32.16c1.11-.61,1.97-1.52,2.63-2.74.67-1.22,1-2.69,1-4.43,0-2.6-.69-4.6-2.05-5.98-1.36-1.38-3.02-2.1-5.01-2.1s-3.63.69-4.96,2.1c-1.33,1.41-1.99,3.38-1.99,5.98s.64,4.6,1.94,5.98c1.3,1.38,2.93,2.1,4.9,2.1,1.25,0,2.41-.3,3.52-.91h.03Z"/>
  <path d="M251.52,14.02c1.99,2.05,2.99,4.93,2.99,8.59v16.01h-6.9v-15.07c0-2.16-.55-3.82-1.63-5.01-1.08-1.19-2.55-1.74-4.43-1.74s-3.41.58-4.51,1.74c-1.11,1.16-1.66,2.83-1.66,5.01v15.07h-6.9V11.33h6.9v3.41c.91-1.19,2.1-2.1,3.52-2.77,1.44-.66,2.99-1.02,4.71-1.02,3.24,0,5.87,1.02,7.89,3.07h.03Z"/>
  <path d="M293.89,32.07h-13.68l-2.27,6.56h-7.23l12.35-34.43h8.03l12.35,34.43h-7.28l-2.27-6.56ZM292.01,26.56l-4.98-14.37-4.99,14.37h9.97Z"/>
  <path d="M314.97,4.24v34.4h-6.9V4.24h6.9Z"/>
  <path d="M99.11,66.18c-.89-.39-1.58-.94-2.08-1.63-.5-.69-.75-1.52-.78-2.44h2.35c.08.8.42,1.47.97,1.99.58.55,1.41.8,2.52.8s1.88-.25,2.49-.78c.61-.53.91-1.19.91-2.02,0-.64-.17-1.16-.53-1.58-.36-.42-.8-.72-1.33-.91-.53-.22-1.25-.44-2.16-.66-1.11-.3-1.99-.58-2.69-.89-.66-.3-1.25-.75-1.72-1.36-.47-.64-.72-1.47-.72-2.52,0-.91.22-1.74.69-2.44.47-.72,1.14-1.25,1.97-1.63.86-.39,1.83-.58,2.91-.58,1.58,0,2.88.39,3.88,1.19,1,.8,1.58,1.86,1.72,3.16h-2.41c-.08-.64-.41-1.22-1.02-1.72-.61-.5-1.39-.75-2.38-.75-.91,0-1.66.25-2.24.72-.58.47-.89,1.14-.89,1.99,0,.61.17,1.11.53,1.5.36.39.78.69,1.27.89.5.19,1.22.44,2.13.69,1.11.3,2.02.61,2.69.91.69.3,1.25.75,1.75,1.38.47.64.72,1.47.72,2.52,0,.83-.22,1.61-.66,2.33-.44.72-1.08,1.33-1.94,1.77-.86.44-1.86.69-3.02.69s-2.1-.19-2.99-.58l.06-.06Z"/>
  <path d="M114.15,55.12v7.84c0,.64.14,1.11.42,1.38.28.28.75.39,1.44.39h1.63v1.86h-1.99c-1.22,0-2.16-.28-2.77-.86-.61-.55-.91-1.5-.91-2.8v-7.84h-1.72v-1.83h1.72v-3.35h2.22v3.35h3.46v1.83h-3.46l-.03.03Z"/>
  <path d="M120.77,56.32c.55-1.02,1.3-1.83,2.27-2.38.97-.55,2.02-.86,3.21-.86s2.16.25,3.02.75c.86.5,1.5,1.14,1.91,1.88v-2.44h2.22v13.27h-2.22v-2.46c-.44.78-1.08,1.41-1.94,1.94-.86.5-1.88.78-3.02.78s-2.24-.28-3.21-.89c-.94-.58-1.72-1.38-2.24-2.44-.53-1.05-.83-2.24-.83-3.6s.28-2.55.83-3.57v.03ZM130.57,57.32c-.41-.75-.94-1.3-1.63-1.72-.69-.39-1.44-.58-2.27-.58s-1.58.19-2.24.58c-.66.39-1.22.94-1.63,1.69-.42.75-.61,1.61-.61,2.6s.19,1.91.61,2.66c.42.75.94,1.33,1.63,1.72.69.39,1.44.58,2.24.58s1.58-.19,2.27-.58c.69-.39,1.22-.97,1.63-1.72.42-.75.61-1.63.61-2.63s-.19-1.88-.61-2.6Z"/>
  <path d="M141.48,53.72c.72-.42,1.61-.64,2.63-.64v2.27h-.58c-2.47,0-3.71,1.33-3.71,4.02v7.23h-2.22v-13.27h2.22v2.16c.39-.75.94-1.36,1.66-1.77Z"/>
  <path d="M149.82,55.12v7.84c0,.64.14,1.11.41,1.38.28.28.75.39,1.44.39h1.63v1.86h-1.99c-1.22,0-2.16-.28-2.77-.86-.61-.55-.91-1.5-.91-2.8v-7.84h-1.72v-1.83h1.72v-3.35h2.22v3.35h3.46v1.83h-3.46l-.03.03Z"/>
  <path d="M168.24,53.32v13.27h-2.22v-1.97c-.42.69-1,1.22-1.75,1.58-.75.39-1.58.58-2.49.58-1.03,0-1.97-.22-2.8-.64-.83-.42-1.47-1.08-1.94-1.94-.47-.86-.72-1.91-.72-3.13v-7.78h2.19v7.48c0,1.3.33,2.33,1,3.02.66.69,1.58,1.05,2.71,1.05s2.1-.36,2.8-1.08c.67-.72,1.03-1.77,1.03-3.18v-7.28h2.22l-.03.03Z"/>
  <path d="M176.6,53.85c.86-.5,1.88-.78,3.02-.78s2.24.28,3.21.86c.97.58,1.72,1.36,2.27,2.38.55,1.02.83,2.22.83,3.57s-.28,2.55-.83,3.6c-.55,1.05-1.3,1.86-2.27,2.44-.97.58-2.02.89-3.21.89s-2.13-.25-2.99-.78c-.86-.5-1.52-1.14-1.97-1.91v8.75h-2.21v-19.58h2.21v2.44c.44-.75,1.08-1.38,1.94-1.91v.03ZM183.05,57.29c-.41-.75-.94-1.3-1.63-1.69-.69-.39-1.44-.58-2.27-.58s-1.55.19-2.24.58c-.69.39-1.25.97-1.63,1.72-.39.75-.61,1.63-.61,2.6s.19,1.88.61,2.63c.42.75.97,1.33,1.63,1.72.69.39,1.44.58,2.24.58s1.58-.19,2.27-.58c.69-.39,1.22-.97,1.63-1.72.42-.75.61-1.63.61-2.66s-.19-1.88-.61-2.6Z"/>
  <path d="M198.43,49.68v10.69c0,1.5.36,2.63,1.11,3.35.75.72,1.74,1.08,3.07,1.08s2.3-.36,3.05-1.08c.75-.72,1.11-1.86,1.11-3.35v-10.69h2.22v10.66c0,1.41-.28,2.58-.86,3.55-.55.97-1.33,1.69-2.3,2.13-.97.47-2.05.69-3.24.69s-2.27-.22-3.24-.69c-.97-.47-1.72-1.19-2.27-2.13-.55-.97-.83-2.13-.83-3.55v-10.66h2.21-.03Z"/>
  <path d="M223.49,54.53c1,.97,1.49,2.38,1.49,4.24v7.84h-2.19v-7.51c0-1.33-.33-2.33-1-3.05-.66-.69-1.58-1.05-2.71-1.05s-2.08.36-2.77,1.08c-.69.72-1.02,1.77-1.02,3.19v7.34h-2.22v-13.27h2.22v1.88c.44-.69,1.02-1.19,1.77-1.58.75-.36,1.58-.55,2.49-.55,1.61,0,2.94.5,3.93,1.47v-.03Z"/>
  <path d="M229.17,50.71c-.3-.28-.44-.64-.44-1.05s.14-.78.44-1.05c.3-.28.64-.44,1.05-.44s.75.14,1.02.44c.28.3.42.64.42,1.05s-.14.78-.42,1.05c-.28.3-.64.44-1.02.44s-.78-.14-1.05-.44ZM231.3,53.32v13.27h-2.22v-13.27h2.22Z"/>
  <path d="M240.47,64.56l4.13-11.24h2.35l-5.21,13.27h-2.58l-5.21-13.27h2.38l4.15,11.24h-.03Z"/>
  <path d="M261.66,60.77h-10.61c.08,1.3.53,2.33,1.36,3.07.8.75,1.8,1.11,2.96,1.11.94,0,1.74-.22,2.38-.66.64-.44,1.08-1.02,1.36-1.77h2.38c-.36,1.27-1.05,2.3-2.13,3.1-1.05.8-2.38,1.19-3.96,1.19-1.25,0-2.38-.28-3.38-.86-1-.55-1.77-1.36-2.33-2.41-.55-1.05-.86-2.24-.86-3.63s.28-2.58.83-3.6,1.33-1.83,2.3-2.38c.97-.55,2.13-.83,3.43-.83s2.38.28,3.35.83c.97.55,1.72,1.3,2.24,2.27.53.97.78,2.05.78,3.27,0,.42,0,.86-.08,1.33l-.03-.03ZM258.89,56.81c-.36-.61-.89-1.05-1.52-1.38-.64-.3-1.36-.47-2.13-.47-1.11,0-2.05.36-2.85,1.05-.78.72-1.25,1.69-1.36,2.96h8.39c0-.83-.19-1.55-.55-2.16h.03Z"/>
  <path d="M269,53.72c.72-.42,1.61-.64,2.63-.64v2.27h-.58c-2.46,0-3.71,1.33-3.71,4.02v7.23h-2.22v-13.27h2.22v2.16c.39-.75.94-1.36,1.66-1.77Z"/>
  <path d="M276.61,66.27c-.8-.36-1.44-.83-1.91-1.44-.47-.64-.72-1.33-.77-2.13h2.27c.05.66.39,1.19.94,1.63.55.42,1.3.64,2.19.64.83,0,1.5-.19,1.99-.55.5-.36.72-.83.72-1.41s-.25-1.02-.77-1.3-1.33-.55-2.41-.83c-1-.25-1.8-.53-2.41-.78-.61-.28-1.16-.66-1.61-1.19-.44-.53-.66-1.22-.66-2.08,0-.69.19-1.3.61-1.86.42-.55.97-1.02,1.72-1.36.75-.33,1.58-.5,2.55-.5,1.47,0,2.66.36,3.57,1.11.91.75,1.39,1.77,1.47,3.05h-2.22c-.05-.69-.33-1.25-.83-1.66-.5-.42-1.19-.64-2.05-.64-.8,0-1.41.17-1.88.5-.47.33-.69.78-.69,1.33,0,.44.14.8.42,1.08.28.28.64.5,1.05.69.44.17,1.02.36,1.77.58.94.25,1.72.5,2.33.78.61.25,1.11.64,1.55,1.14.42.5.64,1.16.67,1.97,0,.72-.19,1.38-.61,1.97-.42.58-.97,1.02-1.72,1.36-.75.33-1.58.5-2.52.5-1.03,0-1.94-.17-2.74-.53v-.06Z"/>
  <path d="M287.86,50.71c-.3-.28-.44-.64-.44-1.05s.14-.78.44-1.05c.3-.28.64-.44,1.05-.44s.75.14,1.02.44.42.64.42,1.05-.14.78-.42,1.05c-.28.3-.64.44-1.02.44s-.77-.14-1.05-.44ZM289.99,53.32v13.27h-2.22v-13.27h2.22Z"/>
  <path d="M296.91,55.12v7.84c0,.64.14,1.11.42,1.38.28.28.75.39,1.44.39h1.63v1.86h-1.99c-1.22,0-2.16-.28-2.77-.86-.61-.55-.91-1.5-.91-2.8v-7.84h-1.72v-1.83h1.72v-3.35h2.22v3.35h3.46v1.83h-3.46l-.03.03Z"/>
  <path d="M314.97,53.31l-8,19.53h-2.27l2.63-6.4-5.35-13.13h2.44l4.18,10.75,4.13-10.75h2.27-.03Z"/>
</svg>